<?xml version="1.0" standalone="no"?>
<!DOCTYPE svg PUBLIC "-//W3C//DTD SVG 20010904//EN"
 "http://www.w3.org/TR/2001/REC-SVG-20010904/DTD/svg10.dtd">
<svg version="1.0" xmlns="http://www.w3.org/2000/svg"
 width="772.000000pt" height="772.000000pt" viewBox="0 0 772.000000 772.000000"
 preserveAspectRatio="xMidYMid meet">
<metadata>
Created by potrace 1.11, written by Peter Selinger 2001-2013
</metadata>
<g transform="translate(0.000000,772.000000) scale(0.100000,-0.100000)"
fill="#000000" stroke="none">
<path d="M3094 7283 c-4 -27 -11 -58 -15 -71 -5 -13 -11 -37 -14 -55 -3 -18
-8 -40 -11 -49 -3 -9 -7 -27 -9 -40 -4 -19 -8 -36 -20 -88 -3 -12 -28 -126
-30 -140 -2 -8 -4 -15 -5 -15 -1 0 -3 -11 -6 -24 -2 -14 -25 -112 -49 -218
-25 -107 -47 -209 -50 -226 -3 -18 -10 -45 -15 -62 -5 -16 -20 -84 -35 -150
-15 -66 -29 -127 -32 -135 -4 -8 -5 -18 -5 -22 1 -4 -16 -85 -39 -180 -22 -95
-43 -184 -45 -198 -3 -14 -7 -33 -10 -42 -8 -28 -17 -71 -18 -90 0 -10 -4 -18
-8 -18 -4 0 -7 -3 -6 -7 1 -5 -4 -38 -11 -75 -11 -58 -16 -68 -35 -69 -11 0
-333 0 -714 -1 l-694 0 4 -64 c2 -35 0 -64 -5 -64 -4 0 -5 -4 -2 -10 9 -15 11
-230 2 -230 -5 0 -5 -5 -1 -11 4 -7 6 -45 5 -85 l-2 -74 650 0 c357 0 652 -4
655 -9 3 -4 2 -11 -1 -15 -4 -4 -8 -12 -9 -19 -8 -45 -16 -88 -25 -127 -6 -25
-13 -55 -15 -67 -2 -12 -20 -93 -40 -180 -20 -87 -38 -169 -40 -182 -3 -12
-11 -51 -19 -85 -8 -33 -17 -77 -20 -96 -3 -19 -11 -53 -17 -75 -5 -22 -12
-51 -15 -65 -3 -14 -6 -29 -7 -35 -2 -5 -6 -28 -11 -50 -12 -60 -12 -62 -35
-165 -12 -52 -24 -104 -26 -115 -2 -11 -17 -81 -34 -155 -17 -74 -33 -148 -36
-165 -2 -16 -8 -43 -13 -60 -5 -16 -15 -58 -21 -92 -9 -42 -18 -64 -29 -67 -9
-2 -268 -4 -576 -4 -308 0 -565 -1 -570 -1 -14 -1 -14 -524 0 -532 5 -3 237
-6 513 -5 277 1 508 -1 512 -4 5 -3 5 -23 0 -45 -5 -22 -12 -55 -15 -74 -3
-19 -8 -37 -10 -41 -2 -3 -6 -17 -8 -31 -3 -13 -14 -67 -25 -119 -12 -52 -23
-106 -26 -120 -3 -14 -10 -43 -15 -65 -5 -22 -12 -53 -15 -70 -2 -16 -7 -39
-10 -50 -4 -17 -72 -331 -81 -375 -2 -8 -9 -37 -15 -65 -6 -27 -13 -59 -16
-70 -2 -11 -11 -56 -20 -100 -9 -44 -18 -87 -19 -95 -2 -8 -4 -15 -5 -15 -1 0
-3 -7 -5 -15 -1 -8 -10 -51 -19 -95 -10 -44 -20 -91 -22 -105 -3 -14 -7 -32
-9 -40 -2 -8 -7 -30 -10 -49 -3 -19 -8 -37 -10 -41 -2 -4 -7 -22 -10 -41 -8
-42 -55 -260 -60 -276 -3 -10 58 -13 284 -13 l288 0 13 73 c15 80 17 86 20 90
1 1 3 9 5 17 22 111 46 221 49 231 3 8 7 28 10 44 2 17 18 93 36 170 17 77 33
147 35 155 9 42 47 228 51 250 3 14 7 32 11 40 3 8 7 26 9 40 1 14 25 126 53
250 48 217 55 248 66 308 3 15 11 45 17 67 5 22 12 49 13 60 2 11 8 45 15 75
6 30 13 65 16 77 2 12 8 33 13 45 l9 23 933 -1 c514 -1 937 -2 941 -3 4 -1 4
-11 -1 -24 -5 -13 -12 -41 -15 -63 -4 -21 -11 -55 -16 -74 -5 -19 -11 -46 -14
-60 -5 -25 -10 -51 -22 -102 -3 -15 -5 -30 -5 -33 0 -2 -5 -19 -10 -37 -5 -18
-12 -46 -14 -63 -3 -16 -12 -56 -20 -88 -8 -32 -17 -71 -20 -85 -9 -48 -14
-73 -19 -90 -3 -9 -8 -33 -11 -52 -3 -19 -12 -60 -20 -90 -8 -30 -16 -66 -19
-80 -2 -14 -12 -59 -21 -100 -9 -41 -18 -86 -21 -100 -3 -14 -10 -43 -15 -65
-5 -22 -12 -51 -15 -65 -3 -14 -16 -74 -30 -135 -14 -60 -27 -121 -29 -135 -2
-14 -6 -35 -9 -47 -14 -53 -67 -294 -72 -323 -4 -23 -8 -38 -21 -83 -4 -16 12
-17 284 -15 183 2 288 7 288 13 1 10 42 195 70 310 24 101 96 418 101 445 3
14 14 62 24 107 11 46 22 93 24 105 3 13 18 83 35 157 17 73 33 143 35 155 6
25 9 40 30 127 8 37 17 78 20 90 2 13 11 53 19 89 72 323 90 396 98 405 6 6
286 9 737 10 l727 0 0 269 0 269 -672 0 c-370 0 -673 4 -673 8 0 4 9 47 21 96
12 48 23 97 25 108 2 11 8 43 14 70 6 28 12 59 14 70 3 11 14 59 25 107 11 47
23 99 25 115 3 15 22 100 42 188 20 88 38 170 39 182 2 12 5 26 8 30 3 5 8 28
12 53 4 25 8 47 10 51 2 3 7 19 9 35 7 38 10 51 36 164 12 52 23 104 25 115 3
11 16 72 30 135 15 63 28 124 30 135 8 35 21 96 28 130 8 35 7 35 620 35 l602
0 -2 262 c-1 145 -2 266 -2 270 -1 3 -244 6 -542 7 -298 0 -543 2 -545 4 -3 2
0 26 7 53 6 27 13 59 15 72 7 38 13 65 25 112 6 25 13 56 15 69 3 12 11 51 19
85 8 33 16 72 19 86 4 14 20 84 36 155 17 72 33 146 36 165 3 19 8 38 11 43 2
4 6 17 9 30 5 29 10 53 23 107 5 25 12 57 15 73 2 15 7 35 10 45 3 9 7 28 10
42 3 14 12 52 20 86 8 34 17 72 20 85 12 64 78 356 83 369 3 8 7 24 8 35 1 11
17 82 34 158 17 76 31 140 31 142 0 8 -570 5 -571 -2 -1 -15 -8 -45 -64 -290
-31 -136 -59 -257 -61 -268 -2 -11 -6 -29 -9 -40 -8 -35 -34 -151 -39 -176 -2
-13 -14 -64 -26 -114 -12 -49 -24 -99 -26 -110 -2 -11 -22 -101 -45 -200 -22
-99 -42 -188 -44 -198 -2 -10 -6 -26 -9 -35 -3 -9 -7 -33 -10 -52 -4 -33 -7
-44 -22 -87 -4 -10 -8 -29 -10 -43 -1 -14 -5 -36 -9 -50 -3 -14 -8 -34 -10
-45 -8 -35 -15 -64 -19 -82 -11 -46 -39 -171 -43 -195 -3 -16 -10 -28 -17 -28
-15 -1 -1813 -1 -1849 0 -23 0 -27 3 -22 19 6 20 12 47 21 91 3 14 7 33 10 42
6 21 15 64 19 93 2 11 4 20 5 20 2 0 2 1 25 105 9 41 18 83 21 93 6 25 22 102
28 132 2 11 9 39 15 62 6 22 15 61 20 84 8 38 26 117 47 209 3 14 7 32 8 40 1
8 6 26 10 38 4 13 9 34 11 45 2 17 85 390 110 497 10 41 38 167 41 185 2 11 8
38 14 60 11 40 12 48 25 119 4 22 11 50 16 63 l9 23 -290 0 -289 0 -7 -47z
m1886 -2525 c0 -7 -5 -33 -11 -58 -6 -25 -13 -56 -15 -70 -3 -14 -10 -43 -16
-65 -11 -43 -14 -55 -22 -106 -3 -19 -10 -49 -15 -66 -5 -18 -7 -33 -5 -33 3
0 2 -6 -3 -12 -4 -7 -8 -22 -9 -33 -1 -11 -5 -29 -7 -40 -6 -23 -23 -99 -31
-135 -3 -14 -16 -73 -30 -132 -13 -60 -22 -108 -20 -108 3 0 0 -8 -5 -17 -5
-10 -12 -34 -15 -53 -3 -19 -8 -44 -11 -55 -2 -11 -16 -72 -30 -135 -13 -63
-32 -146 -40 -185 -9 -38 -18 -79 -20 -90 -3 -11 -18 -81 -35 -155 -17 -74
-36 -162 -42 -195 -6 -33 -15 -63 -20 -66 -10 -6 -1858 -9 -1869 -3 -4 2 0 30
7 61 8 32 16 67 18 78 2 11 9 40 15 65 5 25 12 56 15 70 3 14 10 43 15 65 6
22 13 56 16 75 9 46 13 64 15 68 2 1 3 5 4 10 2 8 14 65 20 97 2 11 13 59 25
107 11 48 22 98 25 110 2 13 16 73 30 133 24 101 29 123 40 173 13 63 20 98
21 107 1 6 5 17 8 25 3 8 8 29 11 45 10 58 11 64 82 370 18 76 17 74 29 128
l7 37 934 0 c741 0 934 -3 934 -12z"/>
</g>
</svg>
